inDegrees=yes
name=coleta1_motion.mot
DataType=double
version=3
OpenSimVersion=4.4-2022-07-23-0e9fedc
endheader
time	pelvis_tilt	pelvis_list	pelvis_rotation	pelvis_tx	pelvis_ty	pelvis_tz	hip_flexion_r	hip_adduction_r	hip_rotation_r	knee_angle_r	knee_angle_r_beta	ankle_angle_r	subtalar_angle_r	mtp_angle_r	hip_flexion_l	hip_adduction_l	hip_rotation_l	knee_angle_l	knee_angle_l_beta	ankle_angle_l	subtalar_angle_l	mtp_angle_l	lumbar_extension	lumbar_bending	lumbar_rotation	arm_flex_r	arm_add_r	arm_rot_r	elbow_flex_r	pro_sup_r	wrist_flex_r	wrist_dev_r	arm_flex_l	arm_add_l	arm_rot_l	elbow_flex_l	pro_sup_l	wrist_flex_l	wrist_dev_l
9.721091985702515	0	0	0	0	0.93	0	2.447493689597767	-8.524582618080588	-39.9994635561068	0.004816356978329541	8.406128722325568e-05	-5.010627663170726	0	0	40.3977012292233	-10.01206957000844	2.616232261432089e-15	58.20615456683912	1.015889042116076	-5.010627663128852	0	0	0	0	0	0	0	0	1.415831971166211e-39	7.125097729580939e-39	0	0	0	0	0	1.415831971166211e-39	7.125097729580939e-39	0	0
9.72508692741394	0	0	0	0	0.93	0	2.378927771904214	-8.481934458094042	-39.99946106269592	0.00478519271351257	8.351736819323609e-05	-5.010603991697519	0	0	40.40020995723206	-10.01204846966349	2.616232261432089e-15	58.20694942892739	1.015902915076616	-5.010603991655739	0	0	0	0	0	0	0	0	0	0	0	0	0	0	0	0	0	0	0
9.731071949005127	0	0	0	0	0.93	0	2.269054038288636	-8.344808072010574	-39.99945916719968	0.004715352501532506	8.22984265438932e-05	-5.010583337028319	0	0	40.40239829423886	-10.01203005838483	2.616232261432089e-15	58.2076424226129	1.015915010098124	-5.01058333698662	0	0	0	0	0	0	0	0	0	5.736773033427742e-39	0	0	0	0	0	0	5.736773033427742e-39	0	0
9.748082160949707	0	0	0	0	0.93	0	1.766977749662595	-8.244522703188823	-39.99945998478683	0.004751747184696671	8.293363359532802e-05	-5.010562016674162	0	0	40.40465196004118	-10.01201106184766	2.616232261432089e-15	58.20835521371759	1.01592745064978	-5.010562016632546	0	0	0	0	0	0	0	0	0	1.804797391198992e-41	0	0	0	0	0	0	1.804797391198992e-41	0	0
9.756074905395508	0	0	0	0	0.93	0	1.597900592761888	-8.04456284800934	-39.99945774483812	0.004651049374891626	8.117612526468295e-05	-5.010537958847032	0	0	40.40721934887551	-10.0119895773507	2.616232261432089e-15	58.20916947878287	1.015941662256153	-5.010537958805513	0	0	0	0	0	0	0	0	1.771821403832324e-39	0	0	0	0	0	0	0	0	0	0
9.760081052780151	0	0	0	0	0.93	0	-0.3045904144213614	-7.638349918821219	-39.9994609231651	0.004787232760482658	8.355297372975948e-05	-5.010532829191717	0	0	40.40773050797131	-10.01198506928725	2.616232261432089e-15	58.20932826273553	1.015944433558926	-5.010532829150217	0	0	0	0	0	0	0	0	0	0	0	0	0	0	0	0	0	0	0
9.768093109130859	8.66196739472521e-28	-6.753642196160082e-20	-1.57114029188384e-28	-1.423720345397277e-20	0.93	-2.816041599599524e-21	-0.947817988314656	-7.489898894502889	-39.99946184520083	0.004830590780074938	8.430971392878895e-05	-5.010509828690289	-1.163497822084816e-20	1.961899851117408e-23	40.41016858221317	-10.01196455745782	2.616232261432089e-15	58.21009921553992	1.01595788922374	-5.010509828648882	5.71631402766828e-23	2.558410261451071e-23	0	-1.485284591095265e-17	2.293988776968902e-28	5.085726596211949e-20	2.018914469284984e-26	2.098867926021605e-17	3.497588806037879e-16	3.497589340405924e-16	2.52850407082919e-20	7.969877575216764e-20	6.899069322023936e-17	-2.811085026175647e-17	2.152837218160572e-17	3.497588806070648e-16	3.497589340301908e-16	2.90827272187756e-19	5.703405955682833e-19
9.778084993362427	0	0	0	0	0.93	0	-6.131676859823942	-6.43508469134786	-39.99946733912765	0.005287533117322669	9.228486220552018e-05	-5.010260100571712	0	0	40.44673667123868	-10.01172783823749	2.616232261432089e-15	58.22374925273411	1.016196127315798	-5.010260100531285	0	0	0	0	0	0	0	0	0	0	0	0	0	0	0	0	0	0	0
9.797087907791138	0	0	0	0	0.93	0	-6.778382860255129	-6.386195804468853	-39.99946753412301	0.005379921032866581	9.389733552081591e-05	-5.010239494380883	0	0	40.44894930822656	-10.01170939747165	2.616232261432089e-15	58.22444806069215	1.016208323815505	-5.010239494340536	0	0	0	0	0	0	0	0	1.293673404580269e-46	4.741500906082137e-46	0	0	0	0	0	1.293673404580269e-46	4.741500906082137e-46	0	0
9.82009482383728	0	0	0	0	0.93	0	-7.420930289939595	-6.338345543954343	-39.99946805691383	0.005465471786887737	9.539047785604886e-05	-5.010219157423082	0	0	40.45113601438697	-10.01169119045564	2.616232261432089e-15	58.225138721321	1.016220378117493	-5.010219157382815	0	0	0	0	0	0	0	0	0	0	0	0	0	0	0	0	0	0	0
9.830084085464478	-2.586273221513765e-34	-4.310455369189608e-35	-2.155227684594804e-34	0	0.93	0	-9.667198009183871	-6.131409186965831	-39.99947126582704	0.005730434024130612	0.0001000149412893874	-5.010052050428632	8.671357074010392e-56	0	40.4766350671386	-10.01153030863575	2.616232261432089e-15	58.23422422997135	1.016378950157659	-5.010052050389022	0	-1.825548857686398e-56	0	0	0	1.049690593169679e-55	0	-9.127744288431993e-55	1.029979799974961e-38	2.828466829656322e-39	0	8.993716084977375e-36	0	0	3.833652601141437e-55	1.029979799974961e-38	0	-9.105260289167521e-37	5.610619830179722e-36
9.854089975357056	0	0	0	0	0.93	0	-10.23053244024151	-6.077007321711216	-39.99947196907677	0.005811036478188389	0.000101421719497883	-5.010033911799922	0	0	40.47860745122015	-10.01151402489627	2.616232261432089e-15	58.23484747411615	1.01638982782003	-5.010033911760384	0	0	0	0	0	0	0	0	0	0	0	0	0	0	0	0	0	0	0
9.883086919784546	0	0	0	0	0.93	0	-11.8041137163044	-5.9330033932007	-39.99947380092851	0.006043802526882625	0.0001054842534344549	-5.010027815699139	0	0	40.47922942731935	-10.01150863166157	2.616232261432089e-15	58.23503997573152	1.016393187607034	-5.010027815659627	0	0	0	0	0	0	0	0	2.33478922650281e-39	0	0	0	0	0	0	2.33478922650281e-39	0	0	0
9.891087055206299	-8.620910738379216e-34	-4.310455369189608e-34	5.603591979946491e-34	0	0.93	0	-12.22567342881214	-5.914175159251179	-39.99947412511179	0.006100986082487393	0.0001064822947577554	-5.010008198643005	0	0	40.48137724987468	-10.01149099187288	2.616232261432089e-15	58.23572002008761	1.016405056620107	-5.01000819860357	0	0	0	0	0	0	7.863308737799146e-65	0	5.782496072747265e-46	3.822327912493954e-46	0	1.445148632892816e-64	0	7.863308737799146e-65	0	5.782496072747265e-46	3.822327912493954e-46	0	1.445148632892816e-64
9.904084920883179	0	6.896728590703373e-34	4.310455369189608e-34	0	0.93	0	-12.60491172654397	-5.903265147811696	-39.99947445405994	0.006168183335556866	0.0001076551080721135	-5.009989695294546	0	0	40.48340337671544	-10.0114743521262	2.616232261432089e-15	58.236361362121	1.016416250150221	-5.009989695255183	0	0	0	0	0	0	0	0	0	0	0	0	0	0	0	0	0	0	0
9.916085004806519	0	0	0	0	0.93	0	-12.95068976736687	-5.899185334993843	-39.99947486003352	0.006237757837632593	0.0001088694122087706	-5.009972764268851	0	0	40.48526383680226	-10.01145911336133	2.616232261432089e-15	58.23695082933218	1.016426538293889	-5.00997276422955	0	0	0	0	0	0	0	0	0	0	0	0	0	0	0	0	0	0	0
9.925091028213501	0	0	0	0	0.93	0	-13.24265619424477	-5.901806414457752	-39.99947519174054	0.006289368470379306	0.0001097701876792383	-5.009956819991008	0	0	40.48701512206408	-10.01144476355081	2.616232261432089e-15	58.23750549924144	1.016436219110067	-5.009956819951765	0	0	0	0	0	0	0	0	0	0	0	0	0	0	0	0	0	0	0
9.935075998306274	0	0	0	0	0.93	0	-13.94262299360327	-5.940845313948985	-39.99947645709526	0.006417403531522568	0.0001120048210541805	-5.00993825938182	0	0	40.48903757801136	-10.01142808437191	2.616232261432089e-15	58.23814352058337	1.016447354683182	-5.009938259342651	0	0	0	0	0	0	0	0	0	0	0	0	0	0	0	0	0	0	0
